<svg viewBox="0 0 390 390" xmlns="http://www.w3.org/2000/svg" xmlns:xlink="http://www.w3.org/1999/xlink"><defs><g id="a"><path d="m22.5 9c-2.21 0-4 1.79-4 4 0 .89.29 1.71.78 2.38-1.95 1.12-3.28 3.21-3.28 5.62 0 2.03.94 3.84 2.41 5.03-3 1.06-7.41 5.55-7.41 13.47h23c0-7.92-4.41-12.41-7.41-13.47 1.47-1.19 2.41-3 2.41-5.03 0-2.41-1.33-4.5-3.28-5.62.49-.67.78-1.49.78-2.38 0-2.21-1.79-4-4-4z" fill="#fff" stroke="#000" stroke-linecap="round" stroke-width="1.5"/></g><g id="b" style="fill:none;fill-rule:evenodd;stroke:#000;stroke-width:1.5;stroke-linecap:round;stroke-linejoin:round"><path d="m22 10c10.5 1 16.5 8 16 29h-23c0-9 10-6.5 8-21" fill="#fff" stroke="#000"/><path d="m24 18c.38 2.91-5.55 7.37-8 9-3 2-2.82 4.34-5 4-1.042-.94 1.41-3.04 0-3-1 0 .19 1.23-1 2-1 0-4.003 1-4-4 0-2 6-12 6-12s1.89-1.9 2-3.5c-.73-.994-.5-2-.5-3 1-1 3 2.5 3 2.5h2s.78-1.992 2.5-3c1 0 1 3 1 3" fill="#fff" stroke="#000"/><path d="m9.5 25.5a.5.5 0 1 1 -1 0 .5.5 0 1 1 1 0z" fill="#000" stroke="#000"/><path d="m15 15.5a.5 1.5 0 1 1 -1 0 .5 1.5 0 1 1 1 0z" fill="#000" stroke="#000" transform="matrix(.866 .5 -.5 .866 9.693 -5.173)"/></g><g id="c" style="fill:none;fill-rule:evenodd;stroke:#000;stroke-width:1.5;stroke-linecap:round;stroke-linejoin:round"><path d="m9 36c3.39-.97 10.11.43 13.5-2 3.39 2.43 10.11 1.03 13.5 2 0 0 1.65.54 3 2-.68.97-1.65.99-3 .5-3.39-.97-10.11.46-13.5-1-3.39 1.46-10.11.03-13.5 1-1.354.49-2.323.47-3-.5 1.354-1.94 3-2 3-2zm6-4c2.5 2.5 12.5 2.5 15 0 .5-1.5 0-2 0-2 0-2.5-2.5-4-2.5-4 5.5-1.5 6-11.5-5-15.5-11 4-10.5 14-5 15.5 0 0-2.5 1.5-2.5 4 0 0-.5.5 0 2zm10-24a2.5 2.5 0 1 1 -5 0 2.5 2.5 0 1 1 5 0z" fill="#fff" stroke-linecap="butt"/><path d="m17.5 26h10m-12.5 4h15m-7.5-14.5v5m-2.5-2.5h5" stroke-linejoin="miter"/></g><g id="d" style="fill:#fff;fill-rule:evenodd;stroke:#000;stroke-width:1.5;stroke-linecap:round;stroke-linejoin:round"><path d="m9 39h27v-3h-27zm3-3v-4h21v4zm-1-22v-5h4v2h5v-2h5v2h5v-2h4v5" stroke-linecap="butt"/><path d="m34 14-3 3h-17l-3-3"/><path d="m31 17v12.5h-17v-12.5" stroke-linecap="butt" stroke-linejoin="miter"/><path d="m31 29.5 1.5 2.5h-20l1.5-2.5"/><path d="m11 14h23" fill="none" stroke-linejoin="miter"/></g><g id="e"><path d="m22.5 9c-2.21 0-4 1.79-4 4 0 .89.29 1.71.78 2.38-1.95 1.12-3.28 3.21-3.28 5.62 0 2.03.94 3.84 2.41 5.03-3 1.06-7.41 5.55-7.41 13.47h23c0-7.92-4.41-12.41-7.41-13.47 1.47-1.19 2.41-3 2.41-5.03 0-2.41-1.33-4.5-3.28-5.62.49-.67.78-1.49.78-2.38 0-2.21-1.79-4-4-4z" stroke="#000" stroke-linecap="round" stroke-width="1.5"/></g><g id="f" style="fill:none;fill-rule:evenodd;stroke:#000;stroke-width:1.5;stroke-linecap:round;stroke-linejoin:round"><path d="m22 10c10.5 1 16.5 8 16 29h-23c0-9 10-6.5 8-21" fill="#000" stroke="#000"/><path d="m24 18c.38 2.91-5.55 7.37-8 9-3 2-2.82 4.34-5 4-1.042-.94 1.41-3.04 0-3-1 0 .19 1.23-1 2-1 0-4.003 1-4-4 0-2 6-12 6-12s1.89-1.9 2-3.5c-.73-.994-.5-2-.5-3 1-1 3 2.5 3 2.5h2s.78-1.992 2.5-3c1 0 1 3 1 3" fill="#000" stroke="#000"/><path d="m9.5 25.5a.5.5 0 1 1 -1 0 .5.5 0 1 1 1 0z" fill="#ececec" stroke="#ececec"/><path d="m15 15.5a.5 1.5 0 1 1 -1 0 .5 1.5 0 1 1 1 0z" fill="#ececec" stroke="#ececec" transform="matrix(.866 .5 -.5 .866 9.693 -5.173)"/><path d="m24.55 10.4-.45 1.45.5.15c3.15 1 5.65 2.49 7.9 6.75s3.25 10.31 2.75 20.25l-.05.5h2.25l.05-.5c.5-10.06-.88-16.85-3.25-21.34s-5.79-6.64-9.19-7.16z" fill="#ececec" stroke="none"/></g><g id="g" style="fill:none;fill-rule:evenodd;stroke:#000;stroke-width:1.5;stroke-linecap:round;stroke-linejoin:round"><path d="m9 36c3.39-.97 10.11.43 13.5-2 3.39 2.43 10.11 1.03 13.5 2 0 0 1.65.54 3 2-.68.97-1.65.99-3 .5-3.39-.97-10.11.46-13.5-1-3.39 1.46-10.11.03-13.5 1-1.354.49-2.323.47-3-.5 1.354-1.94 3-2 3-2zm6-4c2.5 2.5 12.5 2.5 15 0 .5-1.5 0-2 0-2 0-2.5-2.5-4-2.5-4 5.5-1.5 6-11.5-5-15.5-11 4-10.5 14-5 15.5 0 0-2.5 1.5-2.5 4 0 0-.5.5 0 2zm10-24a2.5 2.5 0 1 1 -5 0 2.5 2.5 0 1 1 5 0z" fill="#000" stroke-linecap="butt"/><path d="m17.5 26h10m-12.5 4h15m-7.5-14.5v5m-2.5-2.5h5" stroke="#fff" stroke-linejoin="miter"/></g><g id="h" fill-rule="evenodd" stroke="#000" stroke-linecap="round" stroke-linejoin="round" stroke-width="1.5"><path d="m9 39h27v-3h-27zm3.5-7 1.5-2.5h17l1.5 2.5zm-.5 4v-4h21v4z" stroke-linecap="butt"/><path d="m14 29.5v-13h17v13z" stroke-linecap="butt" stroke-linejoin="miter"/><path d="m14 16.5-3-2.5h23l-3 2.5zm-3-2.5v-5h4v2h5v-2h5v2h5v-2h4v5z" stroke-linecap="butt"/><path d="m12 35.5h21m-20-4h19m-18-2h17m-17-13h17m-20-2.5h23" fill="none" stroke="#fff" stroke-linejoin="miter" stroke-width="1"/></g></defs><path d="m7.5 7.5h375v375h-375z" fill="none" stroke="#212121" stroke-width="15"/><g fill="#e5e5e5" stroke="#e5e5e5"><path d="m23.328 10.016q-1.742 0-2.414.398-.672.398-.672 1.36 0 .765.5 1.218.508.445 1.375.445 1.196 0 1.914-.843.727-.852.727-2.258v-.32zm2.867-.594v4.992h-1.437v-1.328q-.492.797-1.227 1.18-.734.375-1.797.375-1.343 0-2.14-.75-.79-.758-.79-2.024 0-1.476.985-2.226.992-.75 2.953-.75h2.016v-.141q0-.992-.656-1.531-.649-.547-1.829-.547-.75 0-1.46.18-.711.18-1.368.539v-1.329q.79-.304 1.532-.453.742-.156 1.445-.156 1.898 0 2.836.984.937.985.937 2.985z" transform="matrix(.75 0 0 .75 20 1)"/><path d="m23.328 10.016q-1.742 0-2.414.398-.672.398-.672 1.36 0 .765.5 1.218.508.445 1.375.445 1.196 0 1.914-.843.727-.852.727-2.258v-.32zm2.867-.594v4.992h-1.437v-1.328q-.492.797-1.227 1.18-.734.375-1.797.375-1.343 0-2.14-.75-.79-.758-.79-2.024 0-1.476.985-2.226.992-.75 2.953-.75h2.016v-.141q0-.992-.656-1.531-.649-.547-1.829-.547-.75 0-1.46.18-.711.18-1.368.539v-1.329q.79-.304 1.532-.453.742-.156 1.445-.156 1.898 0 2.836.984.937.985.937 2.985z" transform="matrix(.75 0 0 .75 20 375)"/><path d="m24.922 10.047q0-1.586-.656-2.485-.649-.906-1.79-.906-1.14 0-1.796.906-.649.899-.649 2.485 0 1.586.649 2.492.656.898 1.797.898 1.14 0 1.789-.898.656-.906.656-2.492zm-4.89-3.055q.452-.781 1.14-1.156.695-.383 1.656-.383 1.594 0 2.586 1.266 1 1.265 1 3.328 0 2.062-1 3.328-.992 1.266-2.586 1.266-.96 0-1.656-.375-.688-.383-1.14-1.164v1.312h-1.446v-12.156h1.445z" transform="matrix(.75 0 0 .75 65 1)"/><path d="m24.922 10.047q0-1.586-.656-2.485-.649-.906-1.79-.906-1.14 0-1.796.906-.649.899-.649 2.485 0 1.586.649 2.492.656.898 1.797.898 1.14 0 1.789-.898.656-.906.656-2.492zm-4.89-3.055q.452-.781 1.14-1.156.695-.383 1.656-.383 1.594 0 2.586 1.266 1 1.265 1 3.328 0 2.062-1 3.328-.992 1.266-2.586 1.266-.96 0-1.656-.375-.688-.383-1.14-1.164v1.312h-1.446v-12.156h1.445z" transform="matrix(.75 0 0 .75 65 375)"/><path d="m25.96 6v1.344q-.608-.336-1.226-.5-.609-.172-1.234-.172-1.398 0-2.172.89-.773.883-.773 2.485 0 1.601.773 2.492.774.883 2.172.883.625 0 1.234-.164.618-.172 1.227-.508v1.328q-.602.281-1.25.422-.64.14-1.367.14-1.977 0-3.14-1.242-1.165-1.242-1.165-3.351 0-2.14 1.172-3.367 1.18-1.227 3.227-1.227.664 0 1.296.14.633.134 1.227.407z" transform="matrix(.75 0 0 .75 110 1)"/><path d="m25.96 6v1.344q-.608-.336-1.226-.5-.609-.172-1.234-.172-1.398 0-2.172.89-.773.883-.773 2.485 0 1.601.773 2.492.774.883 2.172.883.625 0 1.234-.164.618-.172 1.227-.508v1.328q-.602.281-1.25.422-.64.14-1.367.14-1.977 0-3.14-1.242-1.165-1.242-1.165-3.351 0-2.14 1.172-3.367 1.18-1.227 3.227-1.227.664 0 1.296.14.633.134 1.227.407z" transform="matrix(.75 0 0 .75 110 375)"/><path d="m24.973 6.992v-4.734h1.437v12.156h-1.437v-1.312q-.453.78-1.149 1.164-.687.375-1.656.375-1.586 0-2.586-1.266-.992-1.266-.992-3.328 0-2.063.992-3.328 1-1.266 2.586-1.266.969 0 1.656.383.696.375 1.149 1.156zm-4.899 3.055q0 1.586.649 2.492.656.898 1.797.898 1.14 0 1.796-.898.657-.906.657-2.492 0-1.586-.657-2.485-.656-.906-1.796-.906-1.141 0-1.797.906-.649.899-.649 2.485z" transform="matrix(.75 0 0 .75 155 1)"/><path d="m24.973 6.992v-4.734h1.437v12.156h-1.437v-1.312q-.453.78-1.149 1.164-.687.375-1.656.375-1.586 0-2.586-1.266-.992-1.266-.992-3.328 0-2.063.992-3.328 1-1.266 2.586-1.266.969 0 1.656.383.696.375 1.149 1.156zm-4.899 3.055q0 1.586.649 2.492.656.898 1.797.898 1.14 0 1.796-.898.657-.906.657-2.492 0-1.586-.657-2.485-.656-.906-1.796-.906-1.141 0-1.797.906-.649.899-.649 2.485z" transform="matrix(.75 0 0 .75 155 375)"/><path d="m26.555 9.68v.703h-6.61q.094 1.484.89 2.265.806.774 2.235.774.828 0 1.602-.203.781-.203 1.547-.61v1.36q-.774.328-1.586.5-.813.172-1.649.172-2.093 0-3.32-1.22-1.219-1.218-1.219-3.296 0-2.148 1.157-3.406 1.164-1.266 3.132-1.266 1.766 0 2.79 1.14 1.03 1.134 1.03 3.087zm-1.438-.422q-.015-1.18-.664-1.883-.64-.703-1.703-.703-1.203 0-1.93.68-.718.68-.828 1.914z" transform="matrix(.75 0 0 .75 200 1)"/><path d="m26.555 9.68v.703h-6.61q.094 1.484.89 2.265.806.774 2.235.774.828 0 1.602-.203.781-.203 1.547-.61v1.36q-.774.328-1.586.5-.813.172-1.649.172-2.093 0-3.32-1.22-1.219-1.218-1.219-3.296 0-2.148 1.157-3.406 1.164-1.266 3.132-1.266 1.766 0 2.79 1.14 1.03 1.134 1.03 3.087zm-1.438-.422q-.015-1.18-.664-1.883-.64-.703-1.703-.703-1.203 0-1.93.68-.718.68-.828 1.914z" transform="matrix(.75 0 0 .75 200 375)"/><path d="m25.285 2.258v1.195h-1.375q-.773 0-1.078.313-.297.312-.297 1.125v.773h2.367v1.117h-2.367v7.633h-1.445v-7.633h-1.375v-1.117h1.375v-.61q0-1.46.68-2.124.68-.672 2.156-.672z" transform="matrix(.75 0 0 .75 245 1)"/><path d="m25.285 2.258v1.195h-1.375q-.773 0-1.078.313-.297.312-.297 1.125v.773h2.367v1.117h-2.367v7.633h-1.445v-7.633h-1.375v-1.117h1.375v-.61q0-1.46.68-2.124.68-.672 2.156-.672z" transform="matrix(.75 0 0 .75 245 375)"/><path d="m24.973 9.937q0-1.562-.649-2.421-.64-.86-1.804-.86-1.157 0-1.805.86-.64.859-.64 2.421 0 1.555.64 2.415.648.859 1.805.859 1.164 0 1.804-.86.649-.859.649-2.414zm1.437 3.391q0 2.234-.992 3.32-.992 1.094-3.04 1.094-.757 0-1.429-.117-.672-.11-1.304-.344v-1.398q.632.344 1.25.508.617.164 1.257.164 1.414 0 2.118-.743.703-.734.703-2.226v-.711q-.446.773-1.141 1.156-.695.383-1.664.383-1.61 0-2.594-1.227-.984-1.226-.984-3.25 0-2.03.984-3.257.985-1.227 2.594-1.227.969 0 1.664.383t1.14 1.156v-1.328h1.438z" transform="matrix(.75 0 0 .75 290 1)"/><path d="m24.973 9.937q0-1.562-.649-2.421-.64-.86-1.804-.86-1.157 0-1.805.86-.64.859-.64 2.421 0 1.555.64 2.415.648.859 1.805.859 1.164 0 1.804-.86.649-.859.649-2.414zm1.437 3.391q0 2.234-.992 3.32-.992 1.094-3.04 1.094-.757 0-1.429-.117-.672-.11-1.304-.344v-1.398q.632.344 1.25.508.617.164 1.257.164 1.414 0 2.118-.743.703-.734.703-2.226v-.711q-.446.773-1.141 1.156-.695.383-1.664.383-1.61 0-2.594-1.227-.984-1.226-.984-3.25 0-2.03.984-3.257.985-1.227 2.594-1.227.969 0 1.664.383t1.14 1.156v-1.328h1.438z" transform="matrix(.75 0 0 .75 290 375)"/><path d="m26.164 9.133v5.281h-1.437v-5.234q0-1.243-.485-1.86-.484-.617-1.453-.617-1.164 0-1.836.742-.672.742-.672 2.024v4.945h-1.445v-12.156h1.445v4.765q.516-.789 1.211-1.18.703-.39 1.617-.39 1.508 0 2.282.938.773.93.773 2.742z" transform="matrix(.75 0 0 .75 335 1)"/><path d="m26.164 9.133v5.281h-1.437v-5.234q0-1.243-.485-1.86-.484-.617-1.453-.617-1.164 0-1.836.742-.672.742-.672 2.024v4.945h-1.445v-12.156h1.445v4.765q.516-.789 1.211-1.18.703-.39 1.617-.39 1.508 0 2.282.938.773.93.773 2.742z" transform="matrix(.75 0 0 .75 335 375)"/><path d="m6.754 26.996h2.578v-8.898l-2.805.562v-1.437l2.79-.563h1.578v10.336h2.578v1.328h-6.72z" transform="matrix(.75 0 0 .75 0 335)"/><path d="m6.754 26.996h2.578v-8.898l-2.805.562v-1.437l2.79-.563h1.578v10.336h2.578v1.328h-6.72z" transform="matrix(.75 0 0 .75 375 335)"/><path d="m8.195 26.996h5.508v1.328h-7.406v-1.328q.898-.93 2.445-2.492 1.555-1.57 1.953-2.024.758-.851 1.055-1.437.305-.594.305-1.164 0-.93-.657-1.516-.648-.586-1.695-.586-.742 0-1.57.258-.82.258-1.758.781v-1.593q.953-.383 1.781-.578.828-.196 1.516-.196 1.812 0 2.89.906 1.079.907 1.079 2.422 0 .72-.274 1.368-.265.64-.976 1.515-.196.227-1.243 1.313-1.046 1.078-2.953 3.023z" transform="matrix(.75 0 0 .75 0 290)"/><path d="m8.195 26.996h5.508v1.328h-7.406v-1.328q.898-.93 2.445-2.492 1.555-1.57 1.953-2.024.758-.851 1.055-1.437.305-.594.305-1.164 0-.93-.657-1.516-.648-.586-1.695-.586-.742 0-1.57.258-.82.258-1.758.781v-1.593q.953-.383 1.781-.578.828-.196 1.516-.196 1.812 0 2.89.906 1.079.907 1.079 2.422 0 .72-.274 1.368-.265.64-.976 1.515-.196.227-1.243 1.313-1.046 1.078-2.953 3.023z" transform="matrix(.75 0 0 .75 375 290)"/><path d="m11.434 22.035q1.132.242 1.765 1.008.64.766.64 1.89 0 1.727-1.187 2.672-1.187.946-3.375.946-.734 0-1.515-.149-.774-.14-1.602-.43v-1.522q.656.383 1.438.578.78.196 1.632.196 1.485 0 2.258-.586.782-.586.782-1.703 0-1.032-.727-1.61-.719-.586-2.008-.586h-1.36v-1.297h1.423q1.164 0 1.78-.46.618-.47.618-1.344 0-.899-.64-1.375-.633-.485-1.82-.485-.65 0-1.391.141-.743.14-1.633.437v-1.406q.898-.25 1.68-.375.788-.125 1.484-.125 1.797 0 2.844.82 1.046.813 1.046 2.204 0 .968-.554 1.64-.555.664-1.578.922z" transform="matrix(.75 0 0 .75 0 245)"/><path d="m11.434 22.035q1.132.242 1.765 1.008.64.766.64 1.89 0 1.727-1.187 2.672-1.187.946-3.375.946-.734 0-1.515-.149-.774-.14-1.602-.43v-1.522q.656.383 1.438.578.78.196 1.632.196 1.485 0 2.258-.586.782-.586.782-1.703 0-1.032-.727-1.61-.719-.586-2.008-.586h-1.36v-1.297h1.423q1.164 0 1.78-.46.618-.47.618-1.344 0-.899-.64-1.375-.633-.485-1.82-.485-.65 0-1.391.141-.743.14-1.633.437v-1.406q.898-.25 1.68-.375.788-.125 1.484-.125 1.797 0 2.844.82 1.046.813 1.046 2.204 0 .968-.554 1.64-.555.664-1.578.922z" transform="matrix(.75 0 0 .75 375 245)"/><path d="m11.016 18.035-3.986 6.227h3.985zm-.414-1.375h1.984v7.602h1.664v1.312h-1.664v2.75h-1.57v-2.75h-5.266v-1.523z" transform="matrix(.75 0 0 .75 0 200)"/><path d="m11.016 18.035-3.986 6.227h3.985zm-.414-1.375h1.984v7.602h1.664v1.312h-1.664v2.75h-1.57v-2.75h-5.266v-1.523z" transform="matrix(.75 0 0 .75 375 200)"/><path d="m6.719 16.66h6.195v1.328h-4.75v2.86q.344-.118.688-.172.343-.063.687-.063 1.953 0 3.094 1.07 1.14 1.07 1.14 2.899 0 1.883-1.171 2.93-1.172 1.039-3.305 1.039-.735 0-1.5-.125-.758-.125-1.57-.375v-1.586q.703.383 1.453.57.75.188 1.586.188 1.351 0 2.14-.711.79-.711.79-1.93 0-1.219-.79-1.93-.789-.71-2.14-.71-.633 0-1.266.14-.625.14-1.281.438z" transform="matrix(.75 0 0 .75 0 155)"/><path d="m6.719 16.66h6.195v1.328h-4.75v2.86q.344-.118.688-.172.343-.063.687-.063 1.953 0 3.094 1.07 1.14 1.07 1.14 2.899 0 1.883-1.171 2.93-1.172 1.039-3.305 1.039-.735 0-1.5-.125-.758-.125-1.57-.375v-1.586q.703.383 1.453.57.75.188 1.586.188 1.351 0 2.14-.711.79-.711.79-1.93 0-1.219-.79-1.93-.789-.71-2.14-.71-.633 0-1.266.14-.625.14-1.281.438z" transform="matrix(.75 0 0 .75 375 155)"/><path d="m10.137 21.863q-1.063 0-1.688.727-.617.726-.617 1.992 0 1.258.617 1.992.625.727 1.688.727 1.062 0 1.68-.727.624-.734.624-1.992 0-1.266-.625-1.992-.617-.727-1.68-.727zm3.133-4.945v1.437q-.594-.28-1.204-.43-.601-.148-1.195-.148-1.562 0-2.39 1.055-.82 1.055-.938 3.188.46-.68 1.156-1.04.696-.367 1.531-.367 1.758 0 2.774 1.07 1.023 1.063 1.023 2.899 0 1.797-1.062 2.883-1.063 1.086-2.828 1.086-2.024 0-3.094-1.547-1.07-1.555-1.07-4.5 0-2.766 1.312-4.406 1.313-1.649 3.524-1.649.593 0 1.195.117.61.118 1.266.352z" transform="matrix(.75 0 0 .75 0 110)"/><path d="m10.137 21.863q-1.063 0-1.688.727-.617.726-.617 1.992 0 1.258.617 1.992.625.727 1.688.727 1.062 0 1.68-.727.624-.734.624-1.992 0-1.266-.625-1.992-.617-.727-1.68-.727zm3.133-4.945v1.437q-.594-.28-1.204-.43-.601-.148-1.195-.148-1.562 0-2.39 1.055-.82 1.055-.938 3.188.46-.68 1.156-1.04.696-.367 1.531-.367 1.758 0 2.774 1.07 1.023 1.063 1.023 2.899 0 1.797-1.062 2.883-1.063 1.086-2.828 1.086-2.024 0-3.094-1.547-1.07-1.555-1.07-4.5 0-2.766 1.312-4.406 1.313-1.649 3.524-1.649.593 0 1.195.117.61.118 1.266.352z" transform="matrix(.75 0 0 .75 375 110)"/><path d="m6.25 16.66h7.5v.672l-4.234 10.992h-1.649l3.985-10.336h-5.602z" transform="matrix(.75 0 0 .75 0 65)"/><path d="m6.25 16.66h7.5v.672l-4.234 10.992h-1.649l3.985-10.336h-5.602z" transform="matrix(.75 0 0 .75 375 65)"/><path d="m10 22.785q-1.125 0-1.773.602-.641.601-.641 1.656t.64 1.656q.649.602 1.774.602t1.773-.602q.649-.61.649-1.656 0-1.055-.649-1.656-.64-.602-1.773-.602zm-1.578-.672q-1.016-.25-1.586-.945-.563-.695-.563-1.695 0-1.399.993-2.211 1-.813 2.734-.813 1.742 0 2.734.813.993.812.993 2.21 0 1-.57 1.696-.563.695-1.571.945 1.14.266 1.773 1.04.641.773.641 1.89 0 1.695-1.04 2.602-1.03.906-2.96.906t-2.969-.906q-1.031-.907-1.031-2.602 0-1.117.64-1.89.641-.774 1.782-1.04zm-.578-2.492q0 .906.562 1.414.57.508 1.594.508 1.016 0 1.586-.508.578-.508.578-1.414 0-.906-.578-1.414-.57-.508-1.586-.508-1.023 0-1.594.508-.562.508-.562 1.414z" transform="matrix(.75 0 0 .75 0 20)"/><path d="m10 22.785q-1.125 0-1.773.602-.641.601-.641 1.656t.64 1.656q.649.602 1.774.602t1.773-.602q.649-.61.649-1.656 0-1.055-.649-1.656-.64-.602-1.773-.602zm-1.578-.672q-1.016-.25-1.586-.945-.563-.695-.563-1.695 0-1.399.993-2.211 1-.813 2.734-.813 1.742 0 2.734.813.993.812.993 2.21 0 1-.57 1.696-.563.695-1.571.945 1.14.266 1.773 1.04.641.773.641 1.89 0 1.695-1.04 2.602-1.03.906-2.96.906t-2.969-.906q-1.031-.907-1.031-2.602 0-1.117.64-1.89.641-.774 1.782-1.04zm-.578-2.492q0 .906.562 1.414.57.508 1.594.508 1.016 0 1.586-.508.578-.508.578-1.414 0-.906-.578-1.414-.57-.508-1.586-.508-1.023 0-1.594.508-.562.508-.562 1.414z" transform="matrix(.75 0 0 .75 375 20)"/></g><path d="m15 330h45v45h-45z" fill="#d18b47"/><path d="m60 330h45v45h-45z" fill="#ffce9e"/><path d="m105 330h45v45h-45z" fill="#d18b47"/><path d="m150 330h45v45h-45z" fill="#ffce9e"/><path d="m195 330h45v45h-45z" fill="#d18b47"/><path d="m240 330h45v45h-45z" fill="#ffce9e"/><path d="m285 330h45v45h-45z" fill="#d18b47"/><path d="m330 330h45v45h-45z" fill="#ffce9e"/><path d="m15 285h45v45h-45z" fill="#ffce9e"/><path d="m60 285h45v45h-45z" fill="#d18b47"/><path d="m105 285h45v45h-45z" fill="#ffce9e"/><path d="m150 285h45v45h-45z" fill="#d18b47"/><path d="m195 285h45v45h-45z" fill="#ffce9e"/><path d="m240 285h45v45h-45z" fill="#d18b47"/><path d="m285 285h45v45h-45z" fill="#ffce9e"/><path d="m330 285h45v45h-45z" fill="#d18b47"/><path d="m15 240h45v45h-45z" fill="#d18b47"/><path d="m60 240h45v45h-45z" fill="#ffce9e"/><path d="m105 240h45v45h-45z" fill="#d18b47"/><path d="m150 240h45v45h-45z" fill="#ffce9e"/><path d="m195 240h45v45h-45z" fill="#d18b47"/><path d="m240 240h45v45h-45z" fill="#ffce9e"/><path d="m285 240h45v45h-45z" fill="#d18b47"/><path d="m330 240h45v45h-45z" fill="#ffce9e"/><path d="m15 195h45v45h-45z" fill="#ffce9e"/><path d="m60 195h45v45h-45z" fill="#d18b47"/><path d="m105 195h45v45h-45z" fill="#ffce9e"/><path d="m150 195h45v45h-45z" fill="#d18b47"/><path d="m195 195h45v45h-45z" fill="#ffce9e"/><path d="m240 195h45v45h-45z" fill="#d18b47"/><path d="m285 195h45v45h-45z" fill="#ffce9e"/><path d="m330 195h45v45h-45z" fill="#d18b47"/><path d="m15 150h45v45h-45z" fill="#d18b47"/><path d="m60 150h45v45h-45z" fill="#ffce9e"/><path d="m105 150h45v45h-45z" fill="#d18b47"/><path d="m150 150h45v45h-45z" fill="#ffce9e"/><path d="m195 150h45v45h-45z" fill="#d18b47"/><path d="m240 150h45v45h-45z" fill="#ffce9e"/><path d="m285 150h45v45h-45z" fill="#d18b47"/><path d="m330 150h45v45h-45z" fill="#ffce9e"/><path d="m15 105h45v45h-45z" fill="#ffce9e"/><path d="m60 105h45v45h-45z" fill="#d18b47"/><path d="m105 105h45v45h-45z" fill="#ffce9e"/><path d="m150 105h45v45h-45z" fill="#d18b47"/><path d="m195 105h45v45h-45z" fill="#ffce9e"/><path d="m240 105h45v45h-45z" fill="#d18b47"/><path d="m285 105h45v45h-45z" fill="#ffce9e"/><path d="m330 105h45v45h-45z" fill="#d18b47"/><path d="m15 60h45v45h-45z" fill="#d18b47"/><path d="m60 60h45v45h-45z" fill="#ffce9e"/><path d="m105 60h45v45h-45z" fill="#d18b47"/><path d="m150 60h45v45h-45z" fill="#ffce9e"/><path d="m195 60h45v45h-45z" fill="#d18b47"/><path d="m240 60h45v45h-45z" fill="#ffce9e"/><path d="m285 60h45v45h-45z" fill="#d18b47"/><path d="m330 60h45v45h-45z" fill="#ffce9e"/><path d="m15 15h45v45h-45z" fill="#ffce9e"/><path d="m60 15h45v45h-45z" fill="#d18b47"/><path d="m105 15h45v45h-45z" fill="#ffce9e"/><path d="m150 15h45v45h-45z" fill="#d18b47"/><path d="m195 15h45v45h-45z" fill="#ffce9e"/><path d="m240 15h45v45h-45z" fill="#d18b47"/><path d="m285 15h45v45h-45z" fill="#ffce9e"/><path d="m330 15h45v45h-45z" fill="#d18b47"/><use transform="translate(15 330)" xlink:href="#d"/><use transform="translate(60 330)" xlink:href="#b"/><g style="fill:#fff;fill-rule:evenodd;stroke:#000;stroke-width:1.5;stroke-linecap:round;stroke-linejoin:round" transform="translate(150 330)"><path d="m8 12a2 2 0 1 1 -4 0 2 2 0 1 1 4 0zm16.5-4.5a2 2 0 1 1 -4 0 2 2 0 1 1 4 0zm16.5 4.5a2 2 0 1 1 -4 0 2 2 0 1 1 4 0zm-25-3.5a2 2 0 1 1 -4 0 2 2 0 1 1 4 0zm17 .5a2 2 0 1 1 -4 0 2 2 0 1 1 4 0z"/><path d="m9 26c8.5-1.5 21-1.5 27 0l2-12-7 11v-14l-5.5 13.5-3-15-3 15-5.5-14v14.5l-7-11zm0 0c0 2 1.5 2 2.5 4 1 1.5 1 1 .5 3.5-1.5 1-1.5 2.5-1.5 2.5-1.5 1.5.5 2.5.5 2.5 6.5 1 16.5 1 23 0 0 0 1.5-1 0-2.5 0 0 .5-1.5-1-2.5-.5-2.5-.5-2 .5-3.5 1-2 2.5-2 2.5-4-8.5-1.5-18.5-1.5-27 0z" stroke-linecap="butt"/><path d="m11.5 30c3.5-1 18.5-1 22 0m-21.5 3.5c6-1 15-1 21 0" fill="none"/></g><g style="fill:none;fill-rule:evenodd;stroke:#000;stroke-width:1.5;stroke-linecap:round;stroke-linejoin:round" transform="translate(195 330)"><path d="m22.5 11.63v-5.63m-2.5 2h5" stroke-linejoin="miter"/><path d="m22.5 25s4.5-7.5 3-10.5c0 0-1-2.5-3-2.5s-3 2.5-3 2.5c-1.5 3 3 10.5 3 10.5" fill="#fff" stroke-linecap="butt" stroke-linejoin="miter"/><path d="m11.5 37c5.5 3.5 15.5 3.5 21 0v-7s9-4.5 6-10.5c-4-6.5-13.5-3.5-16 4v3.5-3.5c-3.5-7.5-13-10.5-16-4-3 6 5 10 5 10z" fill="#fff"/><path d="m11.5 30c5.5-3 15.5-3 21 0m-21 3.5c5.5-3 15.5-3 21 0m-21 3.5c5.5-3 15.5-3 21 0"/></g><use transform="translate(240 330)" xlink:href="#c"/><use transform="translate(285 330)" xlink:href="#b"/><use transform="translate(330 330)" xlink:href="#d"/><use transform="translate(15 285)" xlink:href="#a"/><use transform="translate(60 285)" xlink:href="#a"/><use transform="translate(105 285)" xlink:href="#a"/><use transform="translate(195 285)" xlink:href="#a"/><use transform="translate(240 285)" xlink:href="#a"/><use transform="translate(285 285)" xlink:href="#a"/><use transform="translate(330 285)" xlink:href="#a"/><use transform="translate(150 195)" xlink:href="#a"/><use transform="translate(240 195)" xlink:href="#c"/><use transform="translate(150 150)" xlink:href="#e"/><use transform="translate(240 105)" xlink:href="#f"/><use transform="translate(15 60)" xlink:href="#e"/><use transform="translate(60 60)" xlink:href="#e"/><use transform="translate(105 60)" xlink:href="#e"/><use transform="translate(195 60)" xlink:href="#e"/><use transform="translate(240 60)" xlink:href="#e"/><use transform="translate(285 60)" xlink:href="#e"/><use transform="translate(330 60)" xlink:href="#e"/><use transform="translate(15 15)" xlink:href="#h"/><use transform="translate(60 15)" xlink:href="#f"/><use transform="translate(105 15)" xlink:href="#g"/><g fill-rule="evenodd" stroke="#000" stroke-linecap="round" stroke-linejoin="round" stroke-width="1.5" transform="translate(150 15)"><g stroke="none"><circle cx="6" cy="12" r="2.75"/><circle cx="14" cy="9" r="2.75"/><circle cx="22.5" cy="8" r="2.75"/><circle cx="31" cy="9" r="2.75"/><circle cx="39" cy="12" r="2.75"/></g><path d="m9 26c8.5-1.5 21-1.5 27 0l2.5-12.5-7.5 11.5-.3-14.1-5.2 13.6-3-14.5-3 14.5-5.2-13.6-.3 14.1-7.5-11.5zm0 0c0 2 1.5 2 2.5 4 1 1.5 1 1 .5 3.5-1.5 1-1.5 2.5-1.5 2.5-1.5 1.5.5 2.5.5 2.5 6.5 1 16.5 1 23 0 0 0 1.5-1 0-2.5 0 0 .5-1.5-1-2.5-.5-2.5-.5-2 .5-3.5 1-2 2.5-2 2.5-4-8.5-1.5-18.5-1.5-27 0z" stroke-linecap="butt"/><g fill="none"><path d="m11 38.5a35 35 1 0 0 23 0" stroke-linecap="butt"/><path d="m11 29a35 35 1 0 1 23 0m-21.5 2.5h20m-21 3a35 35 1 0 0 22 0m-23 3a35 35 1 0 0 24 0" stroke="#fff"/></g></g><g style="fill:none;fill-rule:evenodd;stroke:#000;stroke-width:1.5;stroke-linecap:round;stroke-linejoin:round" transform="translate(195 15)"><path d="m22.5 11.63v-5.63" stroke-linejoin="miter"/><path d="m22.5 25s4.5-7.5 3-10.5c0 0-1-2.5-3-2.5s-3 2.5-3 2.5c-1.5 3 3 10.5 3 10.5" fill="#000" stroke-linecap="butt" stroke-linejoin="miter"/><path d="m11.5 37c5.5 3.5 15.5 3.5 21 0v-7s9-4.5 6-10.5c-4-6.5-13.5-3.5-16 4v3.5-3.5c-3.5-7.5-13-10.5-16-4-3 6 5 10 5 10z" fill="#000"/><path d="m20 8h5" stroke-linejoin="miter"/><path d="m32 29.5s8.5-4 6.03-9.65c-3.88-5.85-13.03-1.85-15.53 4.65l.01 2.1-.01-2.1c-2.5-6.5-12.594-10.5-15.503-4.65-2.497 5.65 4.853 9 4.853 9m-.35 1.15c5.5-3 15.5-3 21 0m-21 3.5c5.5-3 15.5-3 21 0m-21 3.5c5.5-3 15.5-3 21 0" stroke="#fff"/></g><use transform="translate(240 15)" xlink:href="#g"/><use transform="translate(330 15)" xlink:href="#h"/></svg>